PathFileType	4	(X/Y/Z)	/Users/mathieubourgeois/Desktop/Analyse/Traitement/Sujet_01/Data/Transformed_Sujet_01_velo_80.trc
DataRate	CameraRate	NumFrames	NumMarkers	Units	OrigDataRate	OrigDataStartFrame	OrigNumFrames
120.000000	120.000000	4	35	mm	120.000000	0	1957
Frame#	Time	RFHD			LFHD			RBHD			LBHD			RSHO			LSHO			CLAV			STRN			T10			RBWT			LBWT			RFWT			LFWT			RRAD			RWRA			RWRB			RCAR			RHUM			LHUM			LRAD			LWRA			LWRB			LCAR			RKNI			RKNE			LKNI			LKNE			RANE			RANI			RTOE			RHEE			LTOE			LANI			LANE			LHEE			
		X1	Y1	Z1	X2	Y2	Z2	X3	Y3	Z3	X4	Y4	Z4	X5	Y5	Z5	X6	Y6	Z6	X7	Y7	Z7	X8	Y8	Z8	X9	Y9	Z9	X10	Y10	Z10	X11	Y11	Z11	X12	Y12	Z12	X13	Y13	Z13	X14	Y14	Z14	X15	Y15	Z15	X16	Y16	Z16	X17	Y17	Z17	X18	Y18	Z18	X19	Y19	Z19	X20	Y20	Z20	X21	Y21	Z21	X22	Y22	Z22	X23	Y23	Z23	X24	Y24	Z24	X25	Y25	Z25	X26	Y26	Z26	X27	Y27	Z27	X28	Y28	Z28	X29	Y29	Z29	X30	Y30	Z30	X31	Y31	Z31	X32	Y32	Z32	X33	Y33	Z33	X34	Y34	Z34	X35	Y35	Z35	

1	0	179.2312927246093	1456.211181640625	297.2277221679686	176.3444213867187	1450.31103515625	172.3635559082031	55.96276855468746	1544.829345703125	301.963165283203	46.95848846435545	1542.153076171875	171.1423187255859	-6.768973827362102	1391.7099609375	341.5049743652343	-8.794004440307633	1371.98583984375	128.7193298339843	15.21759319305417	1311.085815429688	250.5243530273437	-41.75471496582034	1219.875732421875	251.5671844482421	-223.2411804199219	1380.671508789062	259.8594360351562	-415.8387451171876	1108.610107421875	339.7810058593749	-424.8917236328125	1105.069458007812	219.0203857421874	-239.2926483154297	1066.393676757812	381.2911376953124	-248.6150665283203	1078.478881835938	157.2273864746093	140.984634399414	1185.726440429688	478.0947875976562	298.7272338867187	1031.792236328125	405.4639282226562	320.5596313476562	1050.094116210938	465.0164184570312	402.4876403808593	1027.934326171875	406.0894165039062	91.07826232910151	1146.91845703125	455.0939636230468	97.3644561767578	1133.849853515625	85.78195953369135	149.3050689697266	1164.81494140625	60.58940887451167	315.2935791015625	1037.637084960938	164.1504211425781	338.4384765625	1050.418701171875	101.7124481201172	400.47607421875	1043.54833984375	172.9100036621094	-122.755599975586	652.8745727539062	320.7580871582031	-117.0930099487305	688.1544189453125	435.5351562499999	40.37728881835935	920.6663208007812	188.9858093261718	22.87890624999999	901.1627197265625	63.7306404113769	-264.5242309570313	378.2663269042969	426.7968749999999	-237.5155639648438	368.0529479980469	350.5717773437499	-133.3930053710938	230.2052612304688	424.6987609863281	-334.4242858886719	369.0690002441406	381.7179565429687	101.5809173583984	507.3539428710938	134.6256256103515	-60.08178329467776	584.1954345703125	188.3924102783203	-82.57715606689455	571.3834838867188	111.5035095214843	-149.5028076171875	523.1804809570312	163.5456237792968	
2	0.008333333333333333	178.7864227294922	1455.875854492188	297.9031677246093	176.1629486083984	1450.001953125	172.9926605224609	55.65645980834957	1544.668090820312	302.4048767089843	46.87427139282224	1542.022338867188	171.5497894287109	-7.327756881713909	1391.734375	341.7621765136718	-9.09932708740236	1374.119506835938	129.6587829589843	14.66555690765378	1311.029418945312	250.813003540039	-42.39441299438479	1219.890258789062	251.9740600585937	-223.6580657958985	1381.479858398438	260.2115478515624	-416.3562622070313	1108.643310546875	339.4155273437499	-425.0960998535156	1104.76513671875	218.6404876708983	-240.0009307861329	1066.939331054688	381.3706970214843	-248.5303649902344	1078.202026367188	157.294692993164	140.8307647705078	1185.781372070312	478.0518798828124	298.7395629882812	1031.877563476562	405.5137329101562	320.5752563476562	1050.133056640625	465.0582885742188	402.5536499023437	1027.896728515625	406.1112976074219	90.96067810058588	1146.941162109375	455.0883178710937	97.33309936523436	1133.925170898438	86.22549438476557	149.2548522949219	1164.887329101562	60.88855361938472	315.3432922363281	1037.635864257812	164.2664031982422	338.4321594238281	1050.437744140625	101.787368774414	400.5267944335938	1043.513427734375	172.9629364013672	-121.2853393554688	657.69189453125	321.1953124999999	-113.5031127929688	692.589111328125	436.3205871582031	39.29047012329099	912.3206176757812	188.5845794677734	21.88913536071777	892.7376708984375	64.58934783935541	-270.7877502441407	387.8182678222656	426.8216857910156	-243.9118652343751	377.3244018554688	350.4719543457031	-141.4143066406251	238.1896209716797	424.3530883789062	-341.0389099121094	379.4195251464844	381.5945129394531	108.2570114135742	500.4864196777344	134.0606994628906	-53.83516693115237	573.2328491210938	188.7329406738281	-76.4523162841797	560.1741333007812	111.7322921752929	-142.9635162353516	511.1278381347656	163.4513092041015	
3	0.01666666666666667	178.4031219482422	1455.579956054688	298.5671997070311	175.9324951171875	1449.700927734375	173.6523895263671	55.36199951171871	1544.524291992188	302.8770141601561	46.79642105102537	1541.92138671875	172.0118255615234	-7.808148860931438	1391.780029296875	342.0546569824218	-9.29898357391359	1374.238037109375	130.1279296874999	14.14611530303952	1310.982177734375	251.1008300781249	-42.95758056640628	1219.964721679688	252.327407836914	-224.1189727783203	1381.668823242188	260.1913146972656	-416.8208007812501	1108.6904296875	338.9614257812499	-425.1620483398438	1104.486450195312	218.2072906494139	-240.5719757080079	1067.496826171875	381.4649963378905	-248.3279418945313	1077.9228515625	157.3775939941405	140.7699890136718	1185.810546875	478.0094909667968	298.8114318847656	1031.939575195312	405.5188598632812	320.6503295898437	1050.148071289062	465.06982421875	402.6506958007812	1027.829345703125	406.0965270996094	90.93376159667963	1146.943481445312	455.1160278320312	97.3531036376953	1134.0205078125	86.56217956542963	149.2657165527344	1164.978637695312	61.12622833251948	315.4371032714844	1037.62646484375	164.2878112792968	338.4819641113281	1050.43896484375	101.8021087646484	400.5989990234375	1043.46826171875	172.9618988037109	-119.4430389404297	662.7327270507812	321.6154174804687	-109.6481246948243	697.2909545898438	437.1512145996093	38.22151565551756	903.4359130859375	188.613784790039	20.40373229980468	883.5392456054688	65.32530212402338	-276.3161010742188	397.8031311035156	426.7648620605468	-249.3927764892579	387.085205078125	350.3017883300781	-149.6090850830079	245.8301391601563	423.5673217773438	-346.9415588378907	390.314208984375	381.4268798828124	115.9690246582031	489.7154846191406	134.9274291992187	-48.22552108764651	561.9381103515625	188.8473205566406	-70.72969818115236	548.68994140625	111.793098449707	-136.5391693115235	498.8426818847656	163.2793273925781	
4	0.025	177.9773559570312	1455.032592773438	299.4356079101561	175.7403717041015	1449.438354492188	174.3557586669921	54.84711074829098	1544.185791015625	303.5165100097655	46.70283508300779	1541.82470703125	172.4881744384765	-8.24676322937016	1391.881713867188	342.3650512695312	-9.629949569702164	1373.933227539062	130.4728851318359	13.56356048583981	1310.957641601562	251.5115814208984	-43.40114212036136	1219.742553710938	252.3631286621093	-224.5222778320313	1381.791015625	260.1981811523437	-417.1736450195313	1108.68994140625	338.5269470214843	-425.1121520996094	1104.156860351562	217.8513183593749	-241.1291961669922	1068.071166992188	381.4908447265624	-248.0064086914063	1077.658813476562	157.427276611328	140.8181152343749	1185.820922851562	477.9791870117187	299.1649475097656	1031.416870117188	405.4283142089844	320.4755859374999	1050.103515625	465.1060485839844	402.8460693359374	1028.58251953125	404.5866088867188	91.00473022460932	1146.916748046875	455.1347961425781	97.44175720214842	1134.119873046875	86.75337219238276	149.3559875488281	1165.095825195312	61.3112297058105	315.474365234375	1037.006958007812	164.1433715820312	339.9486083984375	1049.941528320312	101.2391662597656	400.4454345703125	1044.246459960938	173.1564636230469	-117.2917938232422	668.0916748046875	322.2312011718749	-105.019760131836	702.2100830078125	438.1279296874999	36.69697570800779	894.0228881835938	189.0699615478515	19.6531639099121	873.263427734375	65.89037322998041	-281.5316467285157	408.9780578613281	427.0277099609374	-254.5626220703126	397.5668334960938	350.2033996582031	-155.4701843261719	256.6728515625	424.3108520507812	-353.4684143066407	402.5791015625	381.9007873535156	121.9319229125976	479.8542785644531	134.8286895751953	-41.47630310058596	551.5074462890625	188.4882507324218	-65.65698242187501	536.1618041992188	111.7192077636718	-130.6488952636719	486.8243103027344	163.4328460693359	
